<?xml version="1.0" encoding="UTF-8"?>
<svg version="1.1" xmlns="http://www.w3.org/2000/svg" width="877" height="253">
<path d="M0 0 C7.06940229 6.76117238 12.65306948 14.22427173 18.02734375 22.34375 C18.60355469 23.19710937 19.17976562 24.05046875 19.7734375 24.9296875 C35.56184351 49.61701326 40.12563732 82.59184931 34.33984375 111.03125 C33.64139071 114.15695121 32.86122121 117.25165727 32.02734375 120.34375 C31.85605957 121.00342773 31.68477539 121.66310547 31.50830078 122.34277344 C26.92612639 139.46540396 17.79710029 155.19074372 6.02734375 168.34375 C5.56102539 168.86517578 5.09470703 169.38660156 4.61425781 169.92382812 C-7.19361416 182.87439739 -21.00922773 192.24796204 -36.97265625 199.34375 C-38.03871094 199.82585937 -39.10476562 200.30796875 -40.203125 200.8046875 C-69.15168867 212.91245177 -102.32885723 211.60961673 -131.18041992 200.0012207 C-147.83678315 192.89212302 -163.52013716 182.45304717 -174.97265625 168.34375 C-175.66875 167.54582031 -176.36484375 166.74789062 -177.08203125 165.92578125 C-189.97738588 150.87378973 -198.2187103 133.5662271 -202.97265625 114.34375 C-203.18792969 113.50199219 -203.40320313 112.66023437 -203.625 111.79296875 C-210.2558147 81.44610148 -204.11823148 48.12980535 -187.84765625 21.82421875 C-182.61702423 13.95024948 -176.50588373 7.12786948 -169.97265625 0.34375 C-169.39128906 -0.30078125 -168.80992187 -0.9453125 -168.2109375 -1.609375 C-152.09003676 -18.98908663 -127.20696424 -29.81198654 -103.97265625 -32.65625 C-102.67908203 -32.82060547 -102.67908203 -32.82060547 -101.359375 -32.98828125 C-63.31117716 -37.11796987 -28.34886717 -25.33144504 0 0 Z M-122.97265625 50.34375 C-133.95750208 63.77221019 -137.45481987 77.38164114 -137.37109375 94.578125 C-137.37396393 95.89613098 -137.37683411 97.21413696 -137.37979126 98.57208252 C-137.38417402 101.3386918 -137.37791227 104.10500733 -137.36376953 106.87158203 C-137.34661197 110.39735949 -137.35658528 113.92245485 -137.37448692 117.44820786 C-137.38799031 120.84573361 -137.37851402 124.24307995 -137.37109375 127.640625 C-137.37716644 128.8959906 -137.38323914 130.1513562 -137.38949585 131.44476318 C-137.32610647 139.36755819 -136.51029338 145.08051962 -132.41015625 151.96875 C-122.63549132 161.49278249 -110.88035467 163.60858889 -97.72265625 163.53125 C-94.83515625 163.469375 -91.94765625 163.4075 -88.97265625 163.34375 C-88.97265625 155.42375 -88.97265625 147.50375 -88.97265625 139.34375 C-86.33265625 139.34375 -83.69265625 139.34375 -80.97265625 139.34375 C-67.01196636 137.63527396 -53.40384715 132.05247273 -43.97265625 121.34375 C-34.03205771 108.15562524 -30.46361383 94.96333537 -32.28125 78.55859375 C-34.72129808 64.93319251 -41.31852703 53.26018972 -52.47265625 44.84375 C-57.09807243 41.7386656 -61.70258517 39.16432001 -66.97265625 37.34375 C-67.61976563 37.11945313 -68.266875 36.89515625 -68.93359375 36.6640625 C-88.54457939 31.17899755 -107.92559834 37.39061924 -122.97265625 50.34375 Z " fill="#2E2E2D" transform="translate(217.97265625,40.65625)"/>
<path d="M0 0 C5.23510068 6.21904731 5.14460122 13.02377342 5.30859375 20.80078125 C5.34202881 21.89962646 5.37546387 22.99847168 5.40991211 24.13061523 C5.66089169 33.06483654 5.70160604 41.98891696 5.62109375 50.92578125 C0.01109375 50.92578125 -5.59890625 50.92578125 -11.37890625 50.92578125 C-11.42789063 48.30125 -11.476875 45.67671875 -11.52734375 42.97265625 C-11.58137184 40.4275142 -11.63867212 37.88246538 -11.69628906 35.33740234 C-11.73454396 33.57022055 -11.76940295 31.80296181 -11.80078125 30.03564453 C-11.84650777 27.49353562 -11.90448914 24.95195477 -11.96484375 22.41015625 C-11.97639496 21.62147156 -11.98794617 20.83278687 -11.99984741 20.02020264 C-12.11186872 14.654444 -12.11186872 14.654444 -14.37890625 9.92578125 C-18.1500166 8.04022607 -22.77912525 8.46268675 -26.75390625 9.61328125 C-29.06570494 11.48050327 -29.49327355 13.07917257 -30.37890625 15.92578125 C-30.54418147 18.67770248 -30.61256197 21.32241313 -30.57421875 24.0703125 C-30.56997391 25.22499275 -30.56997391 25.22499275 -30.56564331 26.40299988 C-30.55449782 28.8482555 -30.52940406 31.29313737 -30.50390625 33.73828125 C-30.49386915 35.4016874 -30.48474458 37.06509932 -30.4765625 38.72851562 C-30.45628313 42.79452873 -30.41712492 46.85973936 -30.37890625 50.92578125 C-38.79390625 51.42078125 -38.79390625 51.42078125 -47.37890625 51.92578125 C-47.43949219 49.31285156 -47.50007812 46.69992188 -47.5625 44.0078125 C-47.6243583 41.46929224 -47.6877174 38.93081356 -47.7512207 36.39233398 C-47.79445694 34.63195517 -47.83613975 32.87153747 -47.8762207 31.11108398 C-47.9341981 28.57654112 -47.99781252 26.04219191 -48.0625 23.5078125 C-48.07921249 22.72428909 -48.09592499 21.94076569 -48.11314392 21.13349915 C-48.21661432 17.29255575 -48.46468809 13.66399003 -49.37890625 9.92578125 C-53.17541077 8.66027974 -57.48007867 7.95288945 -61.37890625 8.92578125 C-64.85709445 11.67159847 -66.24084926 13.14468037 -67.02246094 17.56689453 C-67.05654966 18.95957579 -67.06468164 20.35306471 -67.05078125 21.74609375 C-67.0699057 22.8568074 -67.0699057 22.8568074 -67.0894165 23.98995972 C-67.12560372 26.34396004 -67.12842451 28.69652783 -67.12890625 31.05078125 C-67.15054787 33.41164156 -67.17903224 35.77228768 -67.21124268 38.13302612 C-67.22894995 39.5987129 -67.23928091 41.06451174 -67.24139404 42.53030396 C-67.25901616 45.6056436 -67.39823223 47.98375918 -68.37890625 50.92578125 C-73.32890625 51.25578125 -78.27890625 51.58578125 -83.37890625 51.92578125 C-84.19856982 47.8274634 -84.4847161 44.67363108 -84.44140625 40.55859375 C-84.43367187 39.34300781 -84.4259375 38.12742188 -84.41796875 36.875 C-84.39200688 34.33333252 -84.3659657 31.79166584 -84.33984375 29.25 C-84.30232766 23.34121648 -84.42757183 17.75270457 -85.37890625 11.92578125 C-85.04890625 11.59578125 -84.71890625 11.26578125 -84.37890625 10.92578125 C-84.30577058 8.39528723 -84.28643098 5.89273288 -84.31640625 3.36328125 C-84.32091797 2.65236328 -84.32542969 1.94144531 -84.33007812 1.20898438 C-84.34189761 -0.55211888 -84.35983362 -2.31317911 -84.37890625 -4.07421875 C-80.7050313 -4.92720251 -77.33416695 -5.18211346 -73.56640625 -5.13671875 C-72.59058594 -5.12769531 -71.61476563 -5.11867187 -70.609375 -5.109375 C-69.87332031 -5.09777344 -69.13726563 -5.08617187 -68.37890625 -5.07421875 C-68.04890625 -3.75421875 -67.71890625 -2.43421875 -67.37890625 -1.07421875 C-66.55390625 -1.73421875 -65.72890625 -2.39421875 -64.87890625 -3.07421875 C-58.76870943 -6.56040466 -51.14197835 -5.90755044 -44.37890625 -5.07421875 C-41.82589546 -4.01107737 -39.98260691 -2.91708428 -37.859375 -1.16796875 C-36.28353085 0.22288727 -36.28353085 0.22288727 -33.37890625 -0.07421875 C-32.51265625 -0.69296875 -31.64640625 -1.31171875 -30.75390625 -1.94921875 C-20.92577341 -8.13730239 -9.16119823 -6.99403306 0 0 Z " fill="#2C2C2A" transform="translate(651.37890625,64.07421875)"/>
<path d="M0 0 C5.06650775 4.94270211 8.0046631 10.30546959 10.078125 17.02734375 C7.34655541 17.18997303 4.62470378 17.30845061 1.890625 17.40234375 C1.12169922 17.45261719 0.35277344 17.50289062 -0.43945312 17.5546875 C-6.11433549 17.70082181 -6.11433549 17.70082181 -8.47631836 15.73095703 C-9.69571557 14.21755496 -10.81329268 12.6237023 -11.921875 11.02734375 C-17.44455684 7.77870737 -22.66265844 7.16264821 -28.921875 8.02734375 C-35.06875746 9.85508933 -39.54970665 13.60976182 -42.921875 19.02734375 C-45.68395339 25.26429494 -45.40518619 31.8784783 -43.1328125 38.234375 C-40.37338222 44.28044379 -36.88052474 47.42116977 -30.671875 49.83984375 C-25.01193111 51.53876555 -20.17318321 51.42240862 -14.71875 49.08203125 C-9.2039219 45.99781257 -8.4403477 44.18467098 -4.921875 38.02734375 C-11.521875 37.69734375 -18.121875 37.36734375 -24.921875 37.02734375 C-25.921875 29.02734375 -25.921875 29.02734375 -24.921875 25.02734375 C-13.041875 25.02734375 -1.161875 25.02734375 11.078125 25.02734375 C11.078125 37.80682128 10.40352813 47.32655114 2.1171875 57.05859375 C-5.0117484 63.94170427 -14.26733575 67.83445855 -24.15625 68.12109375 C-35.70813727 67.57875162 -45.71225305 63.82630482 -53.609375 55.1796875 C-58.84120388 48.60066269 -62.31801904 41.48132715 -62.921875 33.02734375 C-62.9734375 32.351875 -63.025 31.67640625 -63.078125 30.98046875 C-63.58165986 19.14739952 -59.12958263 10.05732101 -51.546875 1.27734375 C-36.68848707 -11.45841734 -15.34523144 -12.689326 0 0 Z " fill="#0039FC" transform="translate(361.921875,157.97265625)"/>
<path d="M0 0 C7.1947542 6.41101192 11.44028795 15.8753662 12.21875 25.3828125 C12.49570793 37.1462363 9.96643805 46.29000992 2.1875 55.28125 C-5.51323169 62.92746323 -15.18801013 67.19541826 -26.01953125 67.78515625 C-35.75595209 67.63886612 -44.97504074 64.15819183 -52.01953125 57.47265625 C-52.71949219 56.82425781 -53.41945313 56.17585938 -54.140625 55.5078125 C-61.71404172 47.82322636 -64.17315434 39.5720704 -64.51953125 28.91015625 C-64.21533458 18.30672938 -60.81102344 9.94864733 -53.83203125 1.97265625 C-37.83761171 -12.24460556 -17.17796441 -12.99145858 0 0 Z M-40.39453125 11.66015625 C-45.21443465 16.82433847 -47.24383489 21.22725184 -47.58203125 28.34765625 C-47.29095315 35.55183927 -45.31218942 41.3990913 -39.96484375 46.390625 C-35.30942276 49.78151122 -30.84916029 51.93230008 -25.01953125 51.47265625 C-18.01411417 50.27630862 -12.55409103 46.93111931 -8.01953125 41.47265625 C-4.36239375 35.15903124 -4.47525262 28.45364186 -6.01953125 21.47265625 C-8.26176731 15.32384396 -12.59075805 11.68476799 -17.95703125 8.22265625 C-25.75265984 5.38788222 -33.72633818 6.68011332 -40.39453125 11.66015625 Z " fill="#0039FC" transform="translate(507.01953125,158.52734375)"/>
<path d="M0 0 C41.65310651 0 41.65310651 0 48.61328125 6.4453125 C54.21924712 12.73031085 55.78015367 18.52117045 55.41796875 26.91015625 C54.61866521 32.81902631 52.45694891 36.92912671 48.0625 40.9375 C45.1014336 42.93168757 43.42855172 43.44887917 40 44 C42.03857253 47.00211303 44.08143181 50.00128581 46.125 53 C46.69476563 53.83917969 47.26453125 54.67835938 47.8515625 55.54296875 C51.08054021 60.27635654 54.38602263 64.90199686 57.92919922 69.40625 C59 71 59 71 59 73 C53.02486442 74.99171186 45.92443461 75.43820458 40 73 C35.61257818 69.2547315 32.90064254 64.00880706 30.13574219 59.0234375 C28.58865681 56.26715126 26.85502663 53.66431081 25.0625 51.0625 C24.55847656 50.29035156 24.05445313 49.51820313 23.53515625 48.72265625 C21.75212699 46.72185243 20.61719637 46.35611959 18 46 C18 46.66 18 47.32 18 48 C17.34 48 16.68 48 16 48 C16.0721875 48.63164062 16.144375 49.26328125 16.21875 49.9140625 C17.02000129 57.63723462 17.07686628 65.23650594 17 73 C11.39 73 5.78 73 0 73 C0 48.91 0 24.82 0 0 Z M17 14 C15.93692055 19.97982191 15.64292738 25.92976549 16 32 C17.84825697 33.84825697 20.7741053 33.17362167 23.25 33.1875 C24.38953125 33.20167969 25.5290625 33.21585938 26.703125 33.23046875 C30.84188466 32.94114787 33.75526386 32.15889227 36.8125 29.3125 C38.53562029 25.95694997 38.52208089 23.71982635 38 20 C35.45862841 16.84045695 33.85377341 15.28459114 30 14 C27.77181559 13.93062938 25.54165476 13.91542916 23.3125 13.9375 C22.13300781 13.94652344 20.95351563 13.95554688 19.73828125 13.96484375 C18.38283203 13.98224609 18.38283203 13.98224609 17 14 Z " fill="#0038FC" transform="translate(381,151)"/>
<path d="M0 0 C3.6815625 -0.0309375 3.6815625 -0.0309375 7.4375 -0.0625 C8.21150146 -0.071604 8.98550293 -0.08070801 9.78295898 -0.09008789 C11.52221717 -0.09724913 13.26145304 -0.05024702 15 0 C16.66165207 1.66165207 16.11959725 3.6651603 16.12442017 5.88401794 C16.11902725 6.93058311 16.11902725 6.93058311 16.11352539 7.99829102 C16.11367142 8.72995483 16.11381744 9.46161865 16.1139679 10.2154541 C16.11326867 12.64496784 16.10547585 15.07440583 16.09765625 17.50390625 C16.0957921 19.18399514 16.09436819 20.86408457 16.09336853 22.54417419 C16.08954307 26.97473643 16.07971256 31.4052661 16.06866455 35.83581543 C16.05845103 40.35342976 16.05387104 44.87104934 16.04882812 49.38867188 C16.03809031 58.25913123 16.02049329 67.12955781 16 76 C10.72 76 5.44 76 0 76 C-0.33 74.68 -0.66 73.36 -1 72 C-1.78375 72.61875 -2.5675 73.2375 -3.375 73.875 C-9.26021946 77.7341603 -15.75016194 78.43444401 -22.625 77.5 C-30.10068832 75.86105843 -35.83870317 71.39056298 -40 65 C-44.55442583 56.65838137 -46.0473198 48.87246138 -43.84375 39.55078125 C-40.94987101 30.80215635 -36.16526333 25.21483116 -28 21 C-24.48662399 19.82887466 -21.57957284 19.75859786 -17.875 19.6875 C-15.98394531 19.63142578 -15.98394531 19.63142578 -14.0546875 19.57421875 C-10 20 -10 20 -1 24 C-0.67 16.08 -0.34 8.16 0 0 Z M-23 36 C-26.78493587 39.69031247 -27.29769625 42.89815236 -27.5 48 C-27.31056958 53.09567828 -26.67025187 56.23316255 -23 60 C-18.6229506 62.91803293 -15.21536229 63.64048309 -10 63 C-5.96842448 61.52868275 -3.54218268 59.76954961 -1.0625 56.25 C0.74599681 50.71812741 0.53241439 46.68130861 -1.1875 41.25 C-3.15145191 37.72843107 -4.53828749 36.04555739 -8 34 C-13.65701963 32.39895671 -17.99742383 33.0700747 -23 36 Z " fill="#2C2D2C" transform="translate(772,39)"/>
<path d="M0 0 C1.20474976 0.14514038 1.20474976 0.14514038 2.43383789 0.29321289 C3.04219482 0.37047607 3.65055176 0.44773926 4.27734375 0.52734375 C4.50921387 1.25324707 4.74108398 1.97915039 4.97998047 2.72705078 C6.03704859 6.03560534 7.09469082 9.3439761 8.15234375 12.65234375 C8.51714844 13.79445313 8.88195312 14.9365625 9.2578125 16.11328125 C9.61230469 17.221875 9.96679688 18.33046875 10.33203125 19.47265625 C10.65671387 20.48859863 10.98139648 21.50454102 11.31591797 22.55126953 C12.28455581 25.54966854 13.27624915 28.53964119 14.27734375 31.52734375 C16.11583784 28.14102657 17.27448403 24.67918859 18.44140625 21.01171875 C18.84101563 19.76132813 19.240625 18.5109375 19.65234375 17.22265625 C20.06908117 15.9075745 20.48574693 14.59247004 20.90234375 13.27734375 C21.32652383 11.94651922 21.75099983 10.61578896 22.17578125 9.28515625 C23.21255137 6.03346814 24.24628619 2.78084683 25.27734375 -0.47265625 C27.04809292 -0.49971354 28.81896086 -0.5190782 30.58984375 -0.53515625 C31.57597656 -0.54675781 32.56210937 -0.55835938 33.578125 -0.5703125 C36.27734375 -0.47265625 36.27734375 -0.47265625 39.27734375 0.52734375 C40.42822266 3.25537109 40.42822266 3.25537109 41.50390625 6.86328125 C41.69705414 7.49843658 41.89020203 8.13359192 42.08920288 8.78799438 C42.70517591 10.82283114 43.30396133 12.8622727 43.90234375 14.90234375 C44.31266704 16.26987233 44.7241121 17.63706486 45.13671875 19.00390625 C45.89330002 21.5141619 46.6418182 24.02629502 47.38525391 26.54052734 C47.9842069 28.54588884 48.61551149 30.54184697 49.27734375 32.52734375 C50.54244557 28.61349456 51.80582311 24.69909341 53.06762695 20.78417969 C53.49684415 19.45329875 53.92652672 18.12256781 54.35668945 16.79199219 C54.9760058 14.87604938 55.59349325 12.95951569 56.2109375 11.04296875 C56.76865845 9.31481934 56.76865845 9.31481934 57.33764648 7.55175781 C58.06297864 5.2172775 58.72336944 2.9066251 59.27734375 0.52734375 C61.19318022 0.33154285 63.11006914 0.14602161 65.02734375 -0.03515625 C66.0946875 -0.13957031 67.16203125 -0.24398437 68.26171875 -0.3515625 C70.9611025 -0.45995744 72.72362474 -0.18817941 75.27734375 0.52734375 C72.97388691 9.43124724 70.19576314 18.16409873 67.33984375 26.90234375 C66.68935339 28.89831566 66.03964524 30.89453546 65.39120483 32.89117432 C64.96667502 34.19686969 64.54044906 35.50201491 64.11245728 36.80657959 C62.34943482 42.20838094 60.7783399 47.65811913 59.26733398 53.13525391 C58.94063721 53.92464355 58.61394043 54.7140332 58.27734375 55.52734375 C52.86377716 57.33186595 47.74695459 56.66369574 42.27734375 55.52734375 C41.83080444 54.17201538 41.83080444 54.17201538 41.37524414 52.78930664 C40.27249469 49.44703478 39.16707639 46.10567088 38.05981445 42.76489258 C37.58054476 41.3170073 37.10235118 39.86876537 36.62524414 38.42016602 C35.94047091 36.3416695 35.25187603 34.26447372 34.5625 32.1875 C34.1487915 30.93590088 33.73508301 29.68430176 33.30883789 28.39477539 C32.55669012 25.66468503 32.55669012 25.66468503 31.27734375 24.52734375 C31.00994385 25.39536621 30.74254395 26.26338867 30.46704102 27.15771484 C29.47510168 30.37478044 28.48161153 33.59135847 27.48706055 36.80761719 C27.0567486 38.20032805 26.62705762 39.59323093 26.19799805 40.98632812 C25.58154436 42.98748646 24.96286846 44.98794598 24.34375 46.98828125 C23.97193604 48.19274902 23.60012207 49.3972168 23.21704102 50.63818359 C22.27734375 53.52734375 22.27734375 53.52734375 21.27734375 55.52734375 C16.32734375 55.52734375 11.37734375 55.52734375 6.27734375 55.52734375 C4.07515631 50.59171124 2.27182856 45.66670744 0.68359375 40.50390625 C0.45079712 39.75829437 0.21800049 39.0126825 -0.02185059 38.24447632 C-0.75893862 35.8815006 -1.49101205 33.51701006 -2.22265625 31.15234375 C-2.9538093 28.79989627 -3.68602158 26.44778261 -4.41894531 24.09588623 C-4.88814156 22.5894323 -5.35626017 21.08264227 -5.82324219 19.57550049 C-7.01123984 15.7525544 -8.24795626 11.95626638 -9.56640625 8.17578125 C-10.72265625 4.52734375 -10.72265625 4.52734375 -10.72265625 0.52734375 C-6.97175361 -0.33824917 -3.78846263 -0.46707074 0 0 Z " fill="#2C2C2B" transform="translate(463.72265625,59.47265625)"/>
<path d="M0 0 C44.73076923 0 44.73076923 0 51.4375 6.375 C52.36369141 7.22191406 52.36369141 7.22191406 53.30859375 8.0859375 C58.74493641 14.2379188 60.2931624 21.62278444 59.8515625 29.72265625 C58.7284437 36.57791909 56.25554938 42.3316122 50.8125 46.79296875 C45.40096695 50.54009937 41.37427964 52.04872118 34.796875 52.31640625 C33.91354492 52.35451416 33.03021484 52.39262207 32.12011719 52.43188477 C31.00797852 52.47498779 29.89583984 52.51809082 28.75 52.5625 C25.2025 52.706875 21.655 52.85125 18 53 C18 60.59 18 68.18 18 76 C10 77 10 77 0 76 C0 50.92 0 25.84 0 0 Z M17 15 C17 22.59 17 30.18 17 38 C20.8053125 38.061875 20.8053125 38.061875 24.6875 38.125 C25.47729248 38.14320801 26.26708496 38.16141602 27.08081055 38.18017578 C31.18424875 38.21234333 34.36493728 37.94807229 38 36 C41.0246807 32.89130039 42.89523165 30.4002709 43 26 C41.85078405 22.49186708 40.78101676 19.83680367 38.25 17.125 C31.83208451 13.91604226 23.95686389 14.92183299 17 15 Z " fill="#2D2D2C" transform="translate(302,39)"/>
<path d="M0 0 C4.95 0 9.9 0 15 0 C15.83250241 17.3661692 16.12891539 34.67795924 16.0625 52.0625 C16.05746387 54.40559798 16.05290478 56.74869703 16.04882812 59.09179688 C16.03801526 64.7278921 16.02087313 70.36393343 16 76 C10.39 76 4.78 76 -1 76 C-1 74.68 -1 73.36 -1 72 C-1.47308594 72.34933594 -1.94617188 72.69867188 -2.43359375 73.05859375 C-8.98795312 77.56870848 -14.64902176 78.74827202 -22.5 77.4375 C-29.67179781 75.55678379 -36.00450774 71.25935462 -40.00390625 64.9765625 C-44.28258151 56.48632845 -45.22599749 48.10359141 -42.875 38.9375 C-40.43591574 31.63159181 -36.17161741 25.78624382 -29.39453125 21.9765625 C-21.53300204 18.77039235 -14.01635921 18.26334194 -6.0234375 21.078125 C-4 22 -4 22 -1 24 C-0.67 16.08 -0.34 8.16 0 0 Z M-22.75 36.8125 C-26.36290065 40.3250423 -26.91017443 42.88616294 -27.3125 47.875 C-27.16774118 52.13734297 -26.20863177 55.29519833 -24 59 C-20.74942971 61.84739878 -17.75656122 62.89191983 -13.5 63.5 C-9.24343878 62.89191983 -6.25057029 61.84739878 -3 59 C0.06343313 53.86133798 0.553478 49.81151896 0 44 C-1.70644646 39.32972548 -3.78319563 36.64776088 -8 34 C-13.82491623 32.26491857 -17.76535704 33.52716714 -22.75 36.8125 Z " fill="#2B2B2A" transform="translate(837,39)"/>
<path d="M0 0 C5.61 0 11.22 0 17 0 C17.01458252 1.45293457 17.02916504 2.90586914 17.04418945 4.40283203 C17.10225118 9.80395871 17.17948439 15.20467195 17.26245117 20.60546875 C17.29566333 22.94101237 17.32370676 25.27663553 17.34643555 27.61230469 C17.38004901 30.97365145 17.43237003 34.33427169 17.48828125 37.6953125 C17.49467117 38.73615997 17.5010611 39.77700745 17.50764465 40.84939575 C17.61745447 46.28915765 17.89669897 50.32221239 21 55 C24.09992971 57.35650765 27.52763297 58.05792919 31.3828125 57.90625 C35.29734519 57.23444901 37.51508461 56.43642385 40.5 53.75 C43.73068223 47.82708257 43.13322408 41.14012459 43.09765625 34.5703125 C43.0962413 33.57998016 43.09482635 32.58964783 43.09336853 31.56930542 C43.08779252 28.42117227 43.07524442 25.27311148 43.0625 22.125 C43.0574819 19.98437603 43.05291954 17.84375094 43.04882812 15.703125 C43.03783094 10.46872232 43.02058284 5.23437341 43 0 C48.61 0 54.22 0 60 0 C60.09912916 7.68632272 60.17159374 15.37227046 60.21972656 23.05908203 C60.23979933 25.67210373 60.26706358 28.28508075 60.30175781 30.89794922 C60.35046435 34.66124522 60.37301311 38.42394549 60.390625 42.1875 C60.41127014 43.34926758 60.43191528 44.51103516 60.45318604 45.70800781 C60.45538213 53.70766257 59.20836245 58.65973352 54.39453125 65.171875 C47.76423807 71.78579709 40.18692948 74.85514787 30.875 75.25 C21.74897212 75.09815261 13.51441208 72.54402305 7 66 C0.03936343 57.5833119 -0.30130753 47.93106307 -0.1953125 37.40234375 C-0.1924826 36.32747208 -0.18965271 35.2526004 -0.18673706 34.14515686 C-0.17562274 30.74248698 -0.15053447 27.34008911 -0.125 23.9375 C-0.11495889 21.61784237 -0.10583503 19.29818057 -0.09765625 16.97851562 C-0.07571208 11.31890705 -0.04124306 5.6594995 0 0 Z " fill="#0038FC" transform="translate(526,151)"/>
<path d="M0 0 C4.98043609 -0.07461471 9.96054089 -0.12881987 14.94140625 -0.16479492 C16.63287022 -0.17980505 18.32429578 -0.20021963 20.015625 -0.22631836 C22.45843024 -0.26304686 24.9007173 -0.27980411 27.34375 -0.29296875 C28.46299866 -0.31619453 28.46299866 -0.31619453 29.6048584 -0.33988953 C37.06065213 -0.34223549 43.53385289 1.68569031 49 7 C54.4568283 14.17183148 56.17005355 21.09794309 55 30 C52.84366323 36.53379295 49.77155788 41.26546255 44 45 C37.77183521 47.81798932 32.78080209 48.38899824 26 48.1875 C23.03 48.125625 20.06 48.06375 17 48 C17 56.25 17 64.5 17 73 C11.39 73 5.78 73 0 73 C-0.95676071 64.97299619 -1.14588142 57.08326397 -1.1328125 49.00390625 C-1.13376923 47.69340805 -1.13472595 46.38290985 -1.13571167 45.03269958 C-1.13717467 42.28033244 -1.13507709 39.52799806 -1.13037109 36.77563477 C-1.12463507 33.2495165 -1.1279859 29.72347372 -1.13394356 26.19735813 C-1.13841944 22.82036806 -1.13529053 19.44339847 -1.1328125 16.06640625 C-1.13483673 14.80083389 -1.13686096 13.53526154 -1.13894653 12.2313385 C-1.13579437 11.06259689 -1.13264221 9.89385529 -1.12939453 8.68969727 C-1.12859894 7.66062759 -1.12780334 6.63155792 -1.12698364 5.57130432 C-1 3 -1 3 0 0 Z M17 14 C17 19.94 17 25.88 17 32 C17.66 32 18.32 32 19 32 C19 32.66 19 33.32 19 34 C21.25073828 33.93981983 23.50072325 33.85098794 25.75 33.75 C27.00296875 33.70359375 28.2559375 33.6571875 29.546875 33.609375 C33.45723399 32.91931165 34.66679683 32.15067581 37 29 C38.04821378 25.15654948 38.39424009 22.96369801 36.875 19.25 C34.72075656 16.66490787 33.02613828 15.47729421 30 14 C26.64707992 13.63931498 26.64707992 13.63931498 23.1875 13.8125 C20.1246875 13.9053125 20.1246875 13.9053125 17 14 Z " fill="#003AFC" transform="translate(596,151)"/>
<path d="M0 0 C3.125 2.0625 3.125 2.0625 4.125 3.0625 C4.455 1.7425 4.785 0.4225 5.125 -0.9375 C10.075 -1.2675 15.025 -1.5975 20.125 -1.9375 C20.75032551 2.43977857 21.24969306 6.05567015 21.23852539 10.35522461 C21.23844986 11.33571274 21.23837433 12.31620087 21.23829651 13.32640076 C21.23313522 14.36208694 21.22797394 15.39777313 21.22265625 16.46484375 C21.2212413 17.54254532 21.21982635 18.62024689 21.21836853 19.73060608 C21.21279611 23.15376629 21.20024868 26.57685975 21.1875 30 C21.18248144 32.32877509 21.17791915 34.65755122 21.17382812 36.98632812 C21.16283571 42.67840798 21.14612514 48.37044922 21.125 54.0625 C19.23007254 54.25894384 17.33399097 54.44427288 15.4375 54.625 C13.85388672 54.78162109 13.85388672 54.78162109 12.23828125 54.94140625 C9.31073914 55.05527552 6.95368856 54.77098415 4.125 54.0625 C4.125 52.7425 4.125 51.4225 4.125 50.0625 C3.135 50.8875 2.145 51.7125 1.125 52.5625 C-5.25394253 56.56073005 -12.67280914 55.85035576 -19.875 55.0625 C-23.06286575 54.23763367 -25.29929807 53.09531393 -27.875 51.0625 C-28.80892578 50.33353516 -28.80892578 50.33353516 -29.76171875 49.58984375 C-36.51062206 43.60496723 -39.38902687 35.52751049 -39.9765625 26.64453125 C-39.65232464 18.4014072 -36.8951206 11.04883807 -31.015625 5.21875 C-22.5686712 -2.52958356 -10.82325334 -5.40180521 0 0 Z M-17.875 14.0625 C-21.48371322 17.94880654 -22.61568355 21.64856161 -22.97265625 26.8203125 C-22.7632226 31.62890912 -20.89627455 34.9210755 -17.75 38.4375 C-13.82849952 40.65400027 -10.36350063 41.26075533 -5.875 41.0625 C-1.13282193 39.45194896 1.3403254 37.18794386 4.125 33.0625 C5.75394001 28.17567997 5.49860657 24.28709932 4 19.375 C1.32563245 14.65028399 -1.64676375 12.78909878 -6.75 11.125 C-10.99318754 11.04013625 -14.20572372 11.92665261 -17.875 14.0625 Z " fill="#2B2C2B" transform="translate(700.875,60.9375)"/>
<path d="M0 0 C0.86625 0.928125 0.86625 0.928125 1.75 1.875 C2.08 0.555 2.41 -0.765 2.75 -2.125 C7.7 -2.455 12.65 -2.785 17.75 -3.125 C19.0868641 8.48096089 18.64043247 19.96891604 18.3125 31.625 C18.25917078 33.69008889 18.2064315 35.75519311 18.15429688 37.8203125 C18.02633442 42.83874425 17.89038199 47.85690094 17.75 52.875 C12.8 52.875 7.85 52.875 2.75 52.875 C2.255 50.895 2.255 50.895 1.75 48.875 C0.76 49.7 -0.23 50.525 -1.25 51.375 C-7.62894253 55.37323005 -15.04780914 54.66285576 -22.25 53.875 C-29.21784454 52.07205697 -34.82808196 46.82346032 -38.5390625 40.7734375 C-42.85367456 31.9890115 -43.05168305 23.16318837 -40.25 13.875 C-37.5196405 6.2026898 -32.9165726 1.77376081 -25.75 -1.9375 C-17.22849057 -4.82872641 -7.75156613 -5.0683317 0 0 Z M-22.25 14.875 C-25.16566366 19.6236728 -25.75762991 24.30524219 -24.890625 29.76171875 C-23.55159838 34.17887363 -20.88448587 36.83074514 -17 39.3125 C-12.32496806 40.26875653 -7.66926752 40.2025218 -3.40625 37.86328125 C-0.13223979 35.31950371 1.79395171 32.89040283 2.75 28.875 C3.2548083 23.42307038 2.45245136 19.64933073 -0.25 14.875 C-3.74321043 11.55219008 -6.54457208 10.59435078 -11.25 10.375 C-15.96711603 10.60198904 -18.78286534 11.4924296 -22.25 14.875 Z " fill="#2B2B2A" transform="translate(429.25,62.125)"/>
<path d="M0 0 C4.95 0 9.9 0 15 0 C15.495 37.62 15.495 37.62 16 76 C10.72 76 5.44 76 0 76 C-1.12529116 68.12296186 -1.12529116 68.12296186 -1.12939453 64.0246582 C-1.13254669 63.10872391 -1.13569885 62.19278961 -1.13894653 61.24909973 C-1.1369223 60.27615463 -1.13489807 59.30320953 -1.1328125 58.30078125 C-1.13376923 57.27051315 -1.13472595 56.24024506 -1.13571167 55.17875671 C-1.13639058 52.99766987 -1.13455651 50.81658098 -1.13037109 48.63549805 C-1.12509016 45.36827793 -1.13028868 42.10119984 -1.13671875 38.83398438 C-1.14041302 25.85860182 -0.79656807 12.95103551 0 0 Z " fill="#292A29" transform="translate(367,39)"/>
<path d="M0 0 C1.39456452 0.00667256 2.78911118 0.01863093 4.18359375 0.03515625 C4.89451172 0.03966797 5.60542969 0.04417969 6.33789062 0.04882812 C8.09899388 0.06064761 9.86005411 0.07858362 11.62109375 0.09765625 C12.51715388 3.17018801 12.74757699 5.91411831 12.75048828 9.10986328 C12.75364044 10.10414337 12.7567926 11.09842346 12.76004028 12.12283325 C12.75801605 13.18960297 12.75599182 14.25637268 12.75390625 15.35546875 C12.75534134 17.00456741 12.75534134 17.00456741 12.75680542 18.6869812 C12.75748548 21.00860654 12.75564331 23.33023379 12.75146484 25.65185547 C12.74610397 29.21586342 12.75142099 32.77974592 12.7578125 36.34375 C12.75715189 38.59765653 12.75587108 40.85156298 12.75390625 43.10546875 C12.75593048 44.17628693 12.75795471 45.2471051 12.76004028 46.35037231 C12.75688812 47.33834808 12.75373596 48.32632385 12.75048828 49.34423828 C12.74969269 50.21597687 12.74889709 51.08771545 12.74807739 51.98587036 C12.62109375 54.09765625 12.62109375 54.09765625 11.62109375 56.09765625 C9.07168002 56.41006996 6.61747862 56.61069046 4.05859375 56.72265625 C2.9922168 56.78066406 2.9922168 56.78066406 1.90429688 56.83984375 C0.1436695 56.93437408 -1.61758353 57.01711442 -3.37890625 57.09765625 C-4.36686335 52.91019149 -4.60717979 48.79874338 -4.73046875 44.515625 C-4.75362152 43.78378494 -4.77677429 43.05194489 -4.80062866 42.29792786 C-4.84813866 40.74726874 -4.8933879 39.19653892 -4.93652344 37.64575195 C-5.00261081 35.33053892 -5.08092483 33.01596724 -5.16015625 30.70117188 C-5.46653345 20.80947083 -5.47641284 10.94838767 -4.37890625 1.09765625 C-3.37890625 0.09765625 -3.37890625 0.09765625 0 0 Z " fill="#2B2C2A" transform="translate(547.37890625,58.90234375)"/>
<path d="M0 0 C2.92539902 1.99176104 4.58729794 3.44924075 5.515625 6.9375 C5.87181493 11.21177914 5.26664901 12.68132191 2.4375 16.0625 C-1 18 -1 18 -4.625 18 C-9.9745628 16.41494436 -9.9745628 16.41494436 -12 14 C-13.03685849 10.41673905 -13.35398742 7.22286562 -12.3125 3.625 C-9.01398527 -0.45887538 -5.02068656 -0.61657554 0 0 Z " fill="#2E2F2C" transform="translate(555,36)"/>
<path d="M0 0 C12.21 0 24.42 0 37 0 C37.66 0.66 38.32 1.32 39 2 C26.79 2 14.58 2 2 2 C2 26.09 2 50.18 2 75 C6.29 75 10.58 75 15 75 C11 77 11 77 0 76 C0 50.92 0 25.84 0 0 Z " fill="#282726" transform="translate(302,39)"/>
<path d="M0 0 C0.66 0 1.32 0 2 0 C3.20892666 9.46033082 3.15361885 18.8557708 3.125 28.375 C3.12411377 29.21750305 3.12322754 30.0600061 3.12231445 30.92803955 C3.10698148 43.30852743 2.88916374 55.64697522 2 68 C6.62 68 11.24 68 16 68 C16 60.08 16 52.16 16 44 C16.33 44 16.66 44 17 44 C17 52.25 17 60.5 17 69 C11.72 69 6.44 69 1 69 C0.04466385 61.00691073 -0.13117151 53.16235497 -0.09765625 45.1171875 C-0.0962413 43.82177032 -0.09482635 42.52635315 -0.09336853 41.19168091 C-0.08958811 37.78216549 -0.0797972 34.37269408 -0.06866455 30.9631958 C-0.05835308 27.47026159 -0.05385025 23.97732012 -0.04882812 20.484375 C-0.03816995 13.65623216 -0.02114874 6.8281182 0 0 Z " fill="#002BF5" transform="translate(595,155)"/>
<path d="M0 0 C0.33 0 0.66 0 1 0 C1.33 2.97 1.66 5.94 2 9 C2.33 9 2.66 9 3 9 C3 19.23 3 29.46 3 40 C2.34 40 1.68 40 1 40 C1 43.63 1 47.26 1 51 C-2.3 51 -5.6 51 -9 51 C-9 50.67 -9 50.34 -9 50 C-6.03 50 -3.06 50 0 50 C0 33.5 0 17 0 0 Z " fill="#303332" transform="translate(557,63)"/>
<path d="M0 0 C0.66 0 1.32 0 2 0 C2 14.19 2 28.38 2 43 C1.34 43 0.68 43 0 43 C-0.16907864 38.32292433 -0.32946391 33.64565623 -0.48217773 28.96801758 C-0.53519053 27.38037311 -0.59048174 25.79280287 -0.64819336 24.20532227 C-1.23546659 7.97104742 -1.23546659 7.97104742 0 0 Z " fill="#323132" transform="translate(543,67)"/>
<path d="M0 0 C4.95 0 9.9 0 15 0 C15 3.3 15 6.6 15 10 C14.67 10 14.34 10 14 10 C14 7.36 14 4.72 14 2 C10.04 2 6.08 2 2 2 C2 9.92 2 17.84 2 26 C1.34 25.67 0.68 25.34 0 25 C0 16.75 0 8.5 0 0 Z " fill="#242523" transform="translate(772,39)"/>
<path d="M0 0 C2.04041703 4.08083407 2.2565202 5.79707551 2.265625 10.2265625 C2.26949219 12.0209375 2.26949219 12.0209375 2.2734375 13.8515625 C2.26570312 15.09679687 2.25796875 16.34203125 2.25 17.625 C2.25773438 18.87796875 2.26546875 20.1309375 2.2734375 21.421875 C2.27085937 22.61554688 2.26828125 23.80921875 2.265625 25.0390625 C2.26336914 26.13428223 2.26111328 27.22950195 2.25878906 28.35791016 C2 31 2 31 0 33 C-0.88563089 29.20925463 -1.11681301 25.71304102 -1.09765625 21.82421875 C-1.09443359 20.66728516 -1.09121094 19.51035156 -1.08789062 18.31835938 C-1.07951172 17.12017578 -1.07113281 15.92199219 -1.0625 14.6875 C-1.05798828 13.46998047 -1.05347656 12.25246094 -1.04882812 10.99804688 C-1.03706589 7.99867682 -1.0191311 4.99933211 -1 2 C-7.435 2.495 -7.435 2.495 -14 3 C-14 2.34 -14 1.68 -14 1 C-9.38 0.67 -4.76 0.34 0 0 Z " fill="#20211E" transform="translate(720,59)"/>
<path d="M0 0 C1.79244141 0.01740234 1.79244141 0.01740234 3.62109375 0.03515625 C5.41740234 0.04869141 5.41740234 0.04869141 7.25 0.0625 C8.17683594 0.07410156 9.10367188 0.08570313 10.05859375 0.09765625 C10.05859375 0.42765625 10.05859375 0.75765625 10.05859375 1.09765625 C6.75859375 1.09765625 3.45859375 1.09765625 0.05859375 1.09765625 C-1.52727525 4.26939425 -1.3200707 7.73279447 -1.50390625 11.22265625 C-1.54708984 11.97675781 -1.59027344 12.73085937 -1.63476562 13.5078125 C-1.74088945 15.37087513 -1.84165626 17.23424149 -1.94140625 19.09765625 C-1.28140625 19.09765625 -0.62140625 19.09765625 0.05859375 19.09765625 C0.05859375 19.75765625 0.05859375 20.41765625 0.05859375 21.09765625 C1.48171875 20.85015625 1.48171875 20.85015625 2.93359375 20.59765625 C6.05859375 20.09765625 6.05859375 20.09765625 8.05859375 20.09765625 C8.05859375 20.75765625 8.05859375 21.41765625 8.05859375 22.09765625 C6.24617323 22.12452904 4.43364142 22.1439934 2.62109375 22.16015625 C1.61175781 22.17175781 0.60242188 22.18335938 -0.4375 22.1953125 C-2.94140625 22.09765625 -2.94140625 22.09765625 -3.94140625 21.09765625 C-4.04021422 19.62112961 -4.0721987 18.13998389 -4.07421875 16.66015625 C-4.07550781 15.76554688 -4.07679688 14.8709375 -4.078125 13.94921875 C-4.07232422 12.53769531 -4.07232422 12.53769531 -4.06640625 11.09765625 C-4.07027344 10.15664062 -4.07414063 9.215625 -4.078125 8.24609375 C-4.07683594 7.35148438 -4.07554687 6.456875 -4.07421875 5.53515625 C-4.07252686 4.29572266 -4.07252686 4.29572266 -4.07080078 3.03125 C-3.85677557 -0.16701349 -3.25759769 0.10815397 0 0 Z " fill="#002CF6" transform="translate(614.94140625,163.90234375)"/>
<path d="M0 0 C0.33 0 0.66 0 1 0 C1.33 2.97 1.66 5.94 2 9 C2.33 9 2.66 9 3 9 C3 13.29 3 17.58 3 22 C2.67 22 2.34 22 2 22 C1.67 23.98 1.34 25.96 1 28 C0.67 28 0.34 28 0 28 C0 18.76 0 9.52 0 0 Z " fill="#3D3D3D" transform="translate(557,63)"/>
<path d="M0 0 C0.33 0 0.66 0 1 0 C1.0578304 4.45827926 1.09353855 8.9164628 1.125 13.375 C1.14175781 14.64601563 1.15851562 15.91703125 1.17578125 17.2265625 C1.18222656 18.43828125 1.18867187 19.65 1.1953125 20.8984375 C1.20578613 22.01911621 1.21625977 23.13979492 1.22705078 24.29443359 C1 27 1 27 -1 29 C-1.33 27.35 -1.66 25.7 -2 24 C-1.34 23.67 -0.68 23.34 0 23 C0 15.41 0 7.82 0 0 Z " fill="#343430" transform="translate(545,87)"/>
<path d="M0 0 C0.33 0 0.66 0 1 0 C1.87803974 5.92676823 2.65653817 12.0132621 2 18 C1.34 18.66 0.68 19.32 0 20 C-1.70137504 13.40717171 -1.35911051 6.62566373 0 0 Z " fill="#191814" transform="translate(720,72)"/>
<path d="M0 0 C0.33 0.99 0.66 1.98 1 3 C0.01 3.495 0.01 3.495 -1 4 C-1.33 3.34 -1.66 2.68 -2 2 C-4.97851562 2.09765625 -4.97851562 2.09765625 -7.95703125 2.1953125 C-10 2 -10 2 -13 0 C-8.34462607 -0.83796731 -4.62921525 -1.0161692 0 0 Z " fill="#1E1E1C" transform="translate(503,60)"/>
<path d="M0 0 C3.91939465 3.80411834 7.49102731 7.81576108 11 12 C10.67 12.66 10.34 13.32 10 14 C8.32401988 12.23722805 6.65940764 10.46575711 5 8.6875 C4.52304687 8.18798828 4.04609375 7.68847656 3.5546875 7.17382812 C0 3.33984375 0 3.33984375 0 0 Z " fill="#232220" transform="translate(36,198)"/>
<path d="M0 0 C3.63 0 7.26 0 11 0 C7.80107719 1.5994614 5.64537424 2.42595236 2.25 3.125 C1.05117188 3.37636719 1.05117188 3.37636719 -0.171875 3.6328125 C-0.77515625 3.75398438 -1.3784375 3.87515625 -2 4 C-1.34 3.67 -0.68 3.34 0 3 C0 2.01 0 1.02 0 0 Z " fill="#1E1E1B" transform="translate(816,71)"/>
<path d="M0 0 C0.33 0 0.66 0 1 0 C1.05391993 1.79133978 1.09275571 3.58313899 1.125 5.375 C1.14820313 6.37273437 1.17140625 7.37046875 1.1953125 8.3984375 C1 11 1 11 -1 13 C-1 9.98146205 -0.85049285 7.22918921 -0.5 4.25 C-0.4071875 3.45078125 -0.314375 2.6515625 -0.21875 1.828125 C-0.1465625 1.22484375 -0.074375 0.6215625 0 0 Z " fill="#303442" transform="translate(569,103)"/>
<path d="" fill="#2A2A2A" transform="translate(0,0)"/>
<path d="" fill="#000000" transform="translate(0,0)"/>
<path d="M0 0 C2 1 2 1 2 1 Z " fill="#000000" transform="translate(601,114)"/>
<path d="" fill="#2A2A2A" transform="translate(0,0)"/>
<path d="" fill="#2A2A2A" transform="translate(0,0)"/>
<path d="" fill="#2A2A2A" transform="translate(0,0)"/>
<path d="M0 0 C2 1 2 1 2 1 Z " fill="#6A6A6A" transform="translate(429,61)"/>
<path d="" fill="#7F7F7F" transform="translate(0,0)"/>
<path d="" fill="#0000FF" transform="translate(0,0)"/>
<path d="" fill="#007FFF" transform="translate(0,0)"/>
<path d="" fill="#0000FF" transform="translate(0,0)"/>
<path d="" fill="#003FFF" transform="translate(0,0)"/>
<path d="" fill="#000000" transform="translate(0,0)"/>
<path d="" fill="#0000FF" transform="translate(0,0)"/>
<path d="" fill="#0000FF" transform="translate(0,0)"/>
<path d="" fill="#0000FF" transform="translate(0,0)"/>
<path d="" fill="#000000" transform="translate(0,0)"/>
<path d="" fill="#000000" transform="translate(0,0)"/>
<path d="" fill="#000000" transform="translate(0,0)"/>
<path d="" fill="#0000FF" transform="translate(0,0)"/>
<path d="" fill="#0000FF" transform="translate(0,0)"/>
<path d="" fill="#0000FF" transform="translate(0,0)"/>
<path d="" fill="#0000FF" transform="translate(0,0)"/>
<path d="" fill="#0000FF" transform="translate(0,0)"/>
<path d="" fill="#000000" transform="translate(0,0)"/>
<path d="" fill="#0000FF" transform="translate(0,0)"/>
<path d="" fill="#0000FF" transform="translate(0,0)"/>
<path d="" fill="#0000FF" transform="translate(0,0)"/>
<path d="" fill="#0000FF" transform="translate(0,0)"/>
<path d="" fill="#0000FF" transform="translate(0,0)"/>
<path d="" fill="#000000" transform="translate(0,0)"/>
<path d="" fill="#007FFF" transform="translate(0,0)"/>
<path d="" fill="#0000FF" transform="translate(0,0)"/>
<path d="" fill="#0000FF" transform="translate(0,0)"/>
<path d="" fill="#000000" transform="translate(0,0)"/>
<path d="" fill="#0055FF" transform="translate(0,0)"/>
<path d="" fill="#000000" transform="translate(0,0)"/>
<path d="" fill="#0000FF" transform="translate(0,0)"/>
<path d="" fill="#0033FF" transform="translate(0,0)"/>
<path d="" fill="#0033FF" transform="translate(0,0)"/>
<path d="" fill="#5555FF" transform="translate(0,0)"/>
<path d="" fill="#000000" transform="translate(0,0)"/>
<path d="" fill="#000000" transform="translate(0,0)"/>
<path d="" fill="#7F7F7F" transform="translate(0,0)"/>
<path d="" fill="#0000FF" transform="translate(0,0)"/>
<path d="" fill="#000000" transform="translate(0,0)"/>
<path d="" fill="#555555" transform="translate(0,0)"/>
<path d="" fill="#000000" transform="translate(0,0)"/>
<path d="" fill="#000000" transform="translate(0,0)"/>
<path d="" fill="#555555" transform="translate(0,0)"/>
<path d="" fill="#000000" transform="translate(0,0)"/>
<path d="" fill="#555555" transform="translate(0,0)"/>
<path d="" fill="#7F7F7F" transform="translate(0,0)"/>
<path d="" fill="#000000" transform="translate(0,0)"/>
<path d="" fill="#000000" transform="translate(0,0)"/>
<path d="" fill="#7F7F7F" transform="translate(0,0)"/>
<path d="" fill="#555555" transform="translate(0,0)"/>
<path d="" fill="#555555" transform="translate(0,0)"/>
<path d="" fill="#555555" transform="translate(0,0)"/>
<path d="" fill="#000000" transform="translate(0,0)"/>
<path d="" fill="#7F7F7F" transform="translate(0,0)"/>
<path d="" fill="#7F7F7F" transform="translate(0,0)"/>
<path d="" fill="#000000" transform="translate(0,0)"/>
<path d="" fill="#000000" transform="translate(0,0)"/>
<path d="" fill="#3F3F3F" transform="translate(0,0)"/>
<path d="" fill="#000000" transform="translate(0,0)"/>
<path d="" fill="#000000" transform="translate(0,0)"/>
<path d="" fill="#000000" transform="translate(0,0)"/>
<path d="" fill="#7F7F7F" transform="translate(0,0)"/>
<path d="" fill="#000000" transform="translate(0,0)"/>
<path d="" fill="#7F7F7F" transform="translate(0,0)"/>
<path d="" fill="#333333" transform="translate(0,0)"/>
<path d="" fill="#000000" transform="translate(0,0)"/>
<path d="" fill="#7F7F7F" transform="translate(0,0)"/>
<path d="" fill="#000000" transform="translate(0,0)"/>
<path d="" fill="#7F7F7F" transform="translate(0,0)"/>
<path d="" fill="#000000" transform="translate(0,0)"/>
<path d="" fill="#000000" transform="translate(0,0)"/>
<path d="" fill="#7F7F7F" transform="translate(0,0)"/>
<path d="" fill="#7F7F7F" transform="translate(0,0)"/>
<path d="" fill="#555555" transform="translate(0,0)"/>
<path d="" fill="#555555" transform="translate(0,0)"/>
<path d="" fill="#000000" transform="translate(0,0)"/>
<path d="" fill="#3F3F3F" transform="translate(0,0)"/>
<path d="" fill="#7F7F7F" transform="translate(0,0)"/>
<path d="" fill="#000000" transform="translate(0,0)"/>
<path d="" fill="#000000" transform="translate(0,0)"/>
<path d="" fill="#000000" transform="translate(0,0)"/>
<path d="" fill="#7F7F7F" transform="translate(0,0)"/>
</svg>
